<?xml version="1.0" encoding="UTF-8" standalone="no"?>
<!-- Created with Inkscape (http://www.inkscape.org/) -->

<svg
   width="51.990509mm"
   height="52.795181mm"
   viewBox="0 0 51.99051 52.79518"
   version="1.1"
   id="svg7740"
   xmlns="http://www.w3.org/2000/svg"
   xmlns:svg="http://www.w3.org/2000/svg">
  <defs
     id="defs7737">
    <linearGradient
       id="linearGradient9713">
      <stop
         style="stop-color:#000000;stop-opacity:1;"
         offset="0"
         id="stop9711" />
    </linearGradient>
    <marker
       markerWidth="8"
       markerHeight="11"
       refX="0"
       refY="0"
       orient="auto"
       id="pin"
       viewBox="0 0 8 11"
       preserveAspectRatio="xMidYMid">
      <path
         id="path2422"
         style="fill:#ff0000;fill-rule:evenodd;stroke:none;stop-color:#1c1c1c"
         d="m 2,-9 c 0,1.1045695 -0.8954305,2 -2,2 -1.1045695,0 -2,-0.8954305 -2,-2 0,-1.104569 0.8954305,-2 2,-2 1.1045695,0 2,0.895431 2,2 z m 2,0 c 0,3 -3,6 -4,7 -1,-1 -4,-4 -4,-7 0,-2.209139 1.790861,-4 4,-4 2.209139,0 4,1.790861 4,4 z" />
    </marker>
  </defs>
  <path
     style="fill:#ff0000;fill-opacity:1;stroke:#0d9300;stroke-width:0"
     id="rect2946"
     width="85.964485"
     height="66.0653"
     x="-102.99242"
     y="8.957406"
     ry="1.6047806"
     d="m -101.42204,9.654375 c 7.159393,3.023256 14.940849,4.228488 24.416566,3.938468 9.064091,-0.277421 18.568877,-1.87512 27.046019,-2.60961 8.988252,-0.778773 15.41455,-0.484594 21.158317,0.778367 5.253386,1.155135 8.359892,2.763488 8.359892,2.763488 0.808466,0.367402 1.408311,1.629194 1.358295,2.763068 -0.306119,6.994774 -0.396164,13.880809 -0.221681,21.088576 0.170731,7.052786 0.569343,13.391177 0.971528,19.329158 0.457532,6.755146 0.706651,10.15406 0.965424,15.055462 0.209268,3.963735 0.288588,6.550916 0.288588,6.550916 0.03028,0.87067 -0.663632,1.231792 -1.554155,0.834364 -7.286084,-3.249091 -15.17087,-4.79628 -24.666385,-4.825816 -9.087644,-0.02827 -18.667491,1.353778 -27.282044,2.14644 -9.222269,0.84858 -15.771782,0.866406 -21.903008,0.03494 -5.551205,-0.752807 -8.931106,-1.959836 -8.931106,-1.959836 -0.87405,-0.272292 -1.57663,-1.235387 -1.57663,-2.124436 0.01,-20.941637 0,-62.855738 0,-62.855738 0,-0.8876349 0.69862,-1.2756149 1.57038,-0.907812 z"
     transform="matrix(0.53059384,0,0,0.49115651,61.052065,-3.4881797)" />
  <rect
     style="fill:#ff0000;stroke:#0d9300;stroke-width:0"
     id="rect6681"
     width="5.0315371"
     height="52.795181"
     x="5e-07"
     y="5e-07"
     ry="1.8253655" />
  <path
     style="fill:#ffffff;stroke:#0d9300;stroke-width:0"
     d=""
     id="path11714" />
</svg>
