<?xml version="1.0" encoding="UTF-8" standalone="no"?>
<!-- Created with Inkscape (http://www.inkscape.org/) -->

<svg
   width="176.18614mm"
   height="176.18666mm"
   viewBox="0 0 176.18614 176.18666"
   version="1.1"
   id="svg5"
   inkscape:version="1.2.1 (9c6d41e4, 2022-07-14)"
   sodipodi:docname="bullseye.svg"
   xmlns:inkscape="http://www.inkscape.org/namespaces/inkscape"
   xmlns:sodipodi="http://sodipodi.sourceforge.net/DTD/sodipodi-0.dtd"
   xmlns="http://www.w3.org/2000/svg"
   xmlns:svg="http://www.w3.org/2000/svg">
  <sodipodi:namedview
     id="namedview7"
     pagecolor="#ffffff"
     bordercolor="#000000"
     borderopacity="0.25"
     inkscape:showpageshadow="2"
     inkscape:pageopacity="0.0"
     inkscape:pagecheckerboard="0"
     inkscape:deskcolor="#d1d1d1"
     inkscape:document-units="mm"
     showgrid="false"
     inkscape:zoom="0.23919245"
     inkscape:cx="286.38027"
     inkscape:cy="296.83211"
     inkscape:window-width="1280"
     inkscape:window-height="678"
     inkscape:window-x="0"
     inkscape:window-y="25"
     inkscape:window-maximized="0"
     inkscape:current-layer="layer1" />
  <defs
     id="defs2" />
  <g
     inkscape:label="Layer 1"
     inkscape:groupmode="layer"
     id="layer1"
     transform="translate(-16.360395,-60.406592)">
    <path
       id="path4040"
       style="fill:#903a3e;fill-opacity:1;stroke:#000000;stroke-width:0"
       d="M 104.45321 60.406592 A 88.093216 88.093216 0 0 0 16.360395 148.49992 A 88.093216 88.093216 0 0 0 104.45321 236.59325 A 88.093216 88.093216 0 0 0 192.54654 148.49992 A 88.093216 88.093216 0 0 0 104.45321 60.406592 z M 104.45321 78.025672 A 70.474571 70.474571 0 0 1 155.50384 99.955082 L 164.85779 94.206596 C 166.35551 93.286107 167.72402 93.508497 168.44775 94.611739 C 168.73095 95.043446 168.91498 95.609638 168.96968 96.295357 L 169.80736 106.78361 C 169.85581 107.39081 169.79729 108.0323 169.65078 108.67341 C 170.09087 108.82228 170.50492 109.01124 170.87758 109.24185 L 179.82432 114.77795 C 181.90423 116.06502 181.89512 118.12306 179.80365 119.39111 L 170.82539 124.83677 A 70.474571 70.474571 0 0 1 174.92798 148.49992 A 70.474571 70.474571 0 0 1 104.45321 218.97469 A 70.474571 70.474571 0 0 1 33.978958 148.49992 A 70.474571 70.474571 0 0 1 104.45321 78.025672 z M 104.45321 90.609916 A 57.889828 57.889828 0 0 0 46.563719 148.49992 A 57.889828 57.889828 0 0 0 104.45321 206.38993 A 57.889828 57.889828 0 0 0 162.34322 148.49992 A 57.889828 57.889828 0 0 0 159.31136 130.02043 C 158.18637 129.92625 157.09763 129.6239 156.23196 129.08819 L 151.54336 126.18656 L 142.44986 131.73867 A 41.529655 41.529655 0 0 1 145.98297 148.49992 A 41.529655 41.529655 0 0 1 104.45321 190.02969 A 41.529655 41.529655 0 0 1 62.923961 148.49992 A 41.529655 41.529655 0 0 1 104.45321 106.97016 A 41.529655 41.529655 0 0 1 136.43627 122.01162 L 145.89977 116.23368 L 145.46156 110.74409 C 145.39256 109.87965 145.54747 108.94603 145.85843 108.04296 A 57.889828 57.889828 0 0 0 104.45321 90.609916 z M 104.45321 122.07208 A 26.427963 26.427963 0 0 0 78.025365 148.49992 A 26.427963 26.427963 0 0 0 104.45321 174.92777 A 26.427963 26.427963 0 0 0 130.88157 148.49992 A 26.427963 26.427963 0 0 0 129.35763 139.73198 L 115.7688 148.02863 A 11.326266 11.326266 0 0 1 115.77965 148.49992 A 11.326266 11.326266 0 0 1 104.45321 159.82636 A 11.326266 11.326266 0 0 1 93.127285 148.49992 A 11.326266 11.326266 0 0 1 104.45321 137.17348 A 11.326266 11.326266 0 0 1 109.58623 138.40545 L 123.31304 130.02456 A 26.427963 26.427963 0 0 0 104.45321 122.07208 z " />
    <path
       id="rect423-7"
       style="display:inline;fill:#903a3e;stroke:#0d9300;stroke-width:0;fill-opacity:1"
       d="m 167.4553,96.192365 c -0.66714,-1.016975 -1.92869,-1.222028 -3.30929,-0.373515 l -14.73569,9.05633 c -1.92084,1.18053 -3.32303,3.94048 -3.14364,6.18795 l 0.40381,5.0604 -42.43206,25.90725 c -3.78654,2.3119 -5.609858,6.17978 -4.08826,8.67192 1.5216,2.49215 5.79496,2.63704 9.58149,0.32514 l 42.14097,-25.72952 4.322,2.67478 c 1.9172,1.18643 5.01244,1.20043 6.94017,0.0312 l 14.78845,-8.96993 c 1.92793,-1.16891 1.93645,-3.06603 0.0192,-4.25247 l -8.24718,-5.10322 c -0.34351,-0.21258 -0.7251,-0.38695 -1.13077,-0.52418 0.13505,-0.59097 0.18888,-1.18247 0.14421,-1.74219 l -0.77196,-9.667819 c -0.0504,-0.6321 -0.22039,-1.154177 -0.48145,-1.552126 z" />
    <path
       style="fill:#903a3e;fill-opacity:1;stroke:#0d9300;stroke-width:0"
       d="M 311.82787,664.07834 C 188.76992,657.34799 77.286221,578.83987 28.078015,464.25839 7.1416913,415.50808 -1.6018753,364.07573 1.904914,310.30016 6.3297138,242.44715 32.705186,175.60696 75.877691,122.83982 90.82199,104.5743 121.4592,75.831908 139.99268,62.690127 181.03335,33.588891 224.65861,15.34564 276.3552,5.6659124 c 16.1679,-3.0272953 26.60168,-3.745681 55.33982,-3.8102515 37.34701,-0.083913 50.80148,1.3737377 80.24062,8.6932331 98.18974,24.413062 177.98485,89.741146 221.34209,181.212286 58.91197,124.28709 34.51342,271.71864 -61.42864,371.19086 -68.72311,71.25177 -159.65274,106.61572 -260.02122,101.1263 z m 70.58242,-68.959 c 53.78683,-10.37979 100.35987,-35.0439 138.45455,-73.32267 21.86756,-21.97324 35.21718,-39.97222 48.35349,-65.19394 21.02636,-40.37059 30.25131,-78.03584 30.25131,-123.51532 0,-24.92439 -3.50228,-51.35326 -9.58821,-72.35455 -2.32783,-8.03284 -4.23241,-15.25971 -4.23241,-16.0597 0,-0.79999 8.15602,-6.3738 18.12451,-12.38626 27.16048,-16.38174 26.95885,-19.6929 -2.29497,-37.68972 l -20.58905,-12.6663 -1.22895,-19.27094 c -2.72595,-42.74538 -4.61305,-44.28251 -32.94259,-26.83328 -9.44492,5.81748 -18.10622,10.93551 -19.24734,11.3734 -1.14112,0.43789 -6.77422,-3.67824 -12.518,-9.14694 C 480.49099,105.24183 438.42781,83.247287 387.84131,71.587504 363.42655,65.960099 316.40146,65.039456 289.36935,69.659649 140.66659,95.075184 42.507993,236.34664 70.992682,383.95094 93.013532,498.06039 186.45206,584.09429 304.05377,598.54285 c 19.18066,2.35654 56.95791,0.70599 78.35652,-3.42351 z"
       id="path1008"
       transform="matrix(0.26458333,0,0,0.26458333,16.360395,60.406592)" />
    <path
       style="fill:#903a3e;fill-opacity:1;stroke:#0d9300;stroke-width:0"
       d="m 291.09693,546.81183 c -44.07985,-8.87541 -79.22219,-27.84747 -111.65104,-60.27632 -43.10364,-43.10363 -63.69815,-92.6072 -63.69815,-153.11291 0,-60.69339 21.29133,-112.2928 63.81701,-154.66014 55.87087,-55.66283 133.46415,-76.25929 210.86793,-55.97307 30.32064,7.94653 72.80871,31.78573 91.15705,51.14637 5.36606,5.6621 5.67487,6.71543 6.3155,21.54107 l 0.67357,15.58787 -15.68195,9.3516 c -8.62508,5.14338 -16.37104,9.6258 -17.21326,9.96093 -0.84222,0.33513 -6.34495,-3.96473 -12.22827,-9.55523 -20.98076,-19.93649 -44.25399,-33.2111 -71.16221,-40.58957 -19.42311,-5.32599 -59.4903,-5.38305 -78.76615,-0.11218 -56.99217,15.58417 -100.48402,60.29896 -113.99908,117.20458 -4.45586,18.76155 -4.84296,49.03527 -0.86454,67.61315 13.21966,61.73145 61.52348,109.73162 123.27762,122.50264 20.73987,4.28909 57.18071,2.52764 76.39867,-3.69294 85.82662,-27.78082 131.41463,-114.93556 104.38318,-199.55886 -2.27674,-7.12747 -4.14945,-13.44631 -4.16158,-14.04187 -0.0121,-0.59556 7.29045,-5.44659 16.22795,-10.78007 l 16.25,-9.69725 11.79573,6.89303 c 6.48765,3.79116 13.04215,6.89302 14.56558,6.89302 2.04068,0 3.7708,3.97937 6.57214,15.11631 22.1774,88.16839 -11.46274,179.77521 -85.30061,232.28543 -24.70682,17.57041 -58.06596,31.49794 -87.90846,36.70204 -21.06553,3.67352 -59.50026,3.31284 -79.66663,-0.74763 z"
       id="path1010"
       transform="matrix(0.26458333,0,0,0.26458333,16.360395,60.406592)" />
    <path
       style="fill:#903a3e;fill-opacity:1;stroke:#0d9300;stroke-width:0"
       d="m 317.78906,430.97003 c -28.51675,-4.33092 -56.11571,-23.44675 -70.9601,-49.14901 -13.41155,-23.2214 -16.37168,-53.75572 -7.70658,-79.49483 8.85877,-26.31437 26.34343,-46.47022 50.17894,-57.84498 22.33223,-10.65736 43.53548,-13.12834 66.40166,-7.73831 12.7825,3.0131 31.6655,12.46857 40.97999,20.52031 l 6.45575,5.58055 -24.78227,15.16496 -24.78226,15.16497 -10.03478,-2.12953 c -17.61343,-3.73782 -32.42109,1.04258 -43.56794,14.06516 -8.0726,9.43102 -10.2557,16.55572 -9.44875,30.83669 0.84718,14.99299 7.29436,26.17145 19.41705,33.66634 17.35866,10.73204 42.42606,7.05445 55.42441,-8.1312 5.9114,-6.90613 11.24787,-19.41691 11.24787,-26.36938 0,-2.96243 5.10187,-6.83848 24.49286,-18.60798 13.47107,-8.17637 25.04237,-14.52651 25.714,-14.11141 2.69015,1.6626 5.49904,24.24589 4.58265,36.84406 -4.21467,57.94082 -56.76071,100.36781 -113.6125,91.73359 z"
       id="path1012"
       transform="matrix(0.26458333,0,0,0.26458333,16.360395,60.406592)" />
  </g>
</svg>
