<?xml version="1.0" encoding="UTF-8" standalone="no"?>
<!-- Created with Inkscape (http://www.inkscape.org/) -->

<svg
   width="176.18614mm"
   height="176.18666mm"
   viewBox="0 0 176.18614 176.18666"
   version="1.1"
   id="svg5"
   xmlns="http://www.w3.org/2000/svg"
   xmlns:svg="http://www.w3.org/2000/svg">
  <defs
     id="defs2" />
  <g
     id="layer1"
     transform="translate(-16.360395,-60.406592)">
    <path
       id="path4040"
       style="fill:#903a3e;fill-opacity:1;stroke:#000000;stroke-width:0"
       d="M 104.45321 60.406592 A 88.093216 88.093216 0 0 0 16.360395 148.49992 A 88.093216 88.093216 0 0 0 104.45321 236.59325 A 88.093216 88.093216 0 0 0 192.54654 148.49992 A 88.093216 88.093216 0 0 0 104.45321 60.406592 z M 104.45321 78.025672 A 70.474571 70.474571 0 0 1 155.50384 99.955082 L 164.85779 94.206596 C 166.35551 93.286107 167.72402 93.508497 168.44775 94.611739 C 168.73095 95.043446 168.91498 95.609638 168.96968 96.295357 L 169.80736 106.78361 C 169.85581 107.39081 169.79729 108.0323 169.65078 108.67341 C 170.09087 108.82228 170.50492 109.01124 170.87758 109.24185 L 179.82432 114.77795 C 181.90423 116.06502 181.89512 118.12306 179.80365 119.39111 L 170.82539 124.83677 A 70.474571 70.474571 0 0 1 174.92798 148.49992 A 70.474571 70.474571 0 0 1 104.45321 218.97469 A 70.474571 70.474571 0 0 1 33.978958 148.49992 A 70.474571 70.474571 0 0 1 104.45321 78.025672 z M 104.45321 90.609916 A 57.889828 57.889828 0 0 0 46.563719 148.49992 A 57.889828 57.889828 0 0 0 104.45321 206.38993 A 57.889828 57.889828 0 0 0 162.34322 148.49992 A 57.889828 57.889828 0 0 0 159.31136 130.02043 C 158.18637 129.92625 157.09763 129.6239 156.23196 129.08819 L 151.54336 126.18656 L 142.44986 131.73867 A 41.529655 41.529655 0 0 1 145.98297 148.49992 A 41.529655 41.529655 0 0 1 104.45321 190.02969 A 41.529655 41.529655 0 0 1 62.923961 148.49992 A 41.529655 41.529655 0 0 1 104.45321 106.97016 A 41.529655 41.529655 0 0 1 136.43627 122.01162 L 145.89977 116.23368 L 145.46156 110.74409 C 145.39256 109.87965 145.54747 108.94603 145.85843 108.04296 A 57.889828 57.889828 0 0 0 104.45321 90.609916 z M 104.45321 122.07208 A 26.427963 26.427963 0 0 0 78.025365 148.49992 A 26.427963 26.427963 0 0 0 104.45321 174.92777 A 26.427963 26.427963 0 0 0 130.88157 148.49992 A 26.427963 26.427963 0 0 0 129.35763 139.73198 L 115.7688 148.02863 A 11.326266 11.326266 0 0 1 115.77965 148.49992 A 11.326266 11.326266 0 0 1 104.45321 159.82636 A 11.326266 11.326266 0 0 1 93.127285 148.49992 A 11.326266 11.326266 0 0 1 104.45321 137.17348 A 11.326266 11.326266 0 0 1 109.58623 138.40545 L 123.31304 130.02456 A 26.427963 26.427963 0 0 0 104.45321 122.07208 z " />
    <path
       id="path1008"
       style="fill:#903a3e;fill-opacity:1;stroke:#0d9300;stroke-width:0"
       d="M 331.69532 1.8554688 C 302.95724 1.9200391 292.52335 2.6387264 276.35547 5.6660157 C 224.65898 15.345724 181.03278 33.588276 139.99219 62.689454 C 121.45875 75.831209 90.821223 104.57435 75.876954 122.83985 C 32.704535 175.60687 6.3290879 242.4479 1.9042969 310.30079 C -1.6024854 364.07624 7.1418439 415.50761 28.078125 464.25782 C 77.286233 578.83906 188.77042 657.3478 311.82813 664.07813 C 412.19641 669.56755 503.12665 634.20281 571.84962 562.95118 C 667.79148 463.47916 692.1892 316.04857 633.27735 191.76172 C 589.92021 100.29076 510.12509 34.961842 411.93555 10.548828 C 382.49647 3.2293478 369.04225 1.771556 331.69532 1.8554688 z M 334.46875 66.714845 C 354.37682 66.840595 374.49001 68.51041 387.8418 71.587892 C 438.4282 83.247651 480.49157 105.24151 514.95313 138.05274 C 516.75685 139.77007 518.53159 141.32637 520.17774 142.67774 L 564.80665 114.88086 C 571.09491 110.96434 576.84213 111.91138 579.88087 116.60547 C 581.06994 118.4423 581.84248 120.85192 582.07227 123.76953 L 585.58985 168.39453 C 585.7933 170.97806 585.54673 173.70779 584.93165 176.43555 C 586.77938 177.06892 588.5175 177.87416 590.08204 178.85547 L 627.64649 202.41016 C 636.37897 207.88646 636.33999 216.64364 627.5586 222.03907 L 586.2461 247.43164 C 586.97384 250.38534 588.30332 255.28864 589.88087 260.73243 C 595.96678 281.73366 599.46876 308.16356 599.46876 333.08789 C 599.46876 378.56729 590.24508 416.23301 569.21876 456.60352 C 556.08247 481.8252 542.73276 499.82368 520.86524 521.79688 C 482.77064 560.07557 436.19689 584.73938 382.41016 595.11915 C 361.01159 599.24863 323.23531 600.8995 304.05469 598.54298 C 186.45322 584.09444 93.012994 498.06039 70.992188 383.95118 C 42.507557 236.34716 140.66668 95.075642 289.36914 69.660157 C 299.50617 67.927588 312.45538 66.974057 325.96875 66.75586 C 328.78404 66.710403 331.62474 66.69688 334.46875 66.714845 z M 332.6875 115.14844 C 275.59084 114.99214 221.46752 137.01468 179.56446 178.76172 C 137.03886 221.12898 115.74805 272.72861 115.74805 333.42188 C 115.74805 393.92747 136.34177 443.43163 179.44531 486.53516 C 211.8741 518.96395 247.01789 537.93712 291.09766 546.81251 C 311.26399 550.87296 349.69819 551.23212 370.76368 547.5586 C 400.60612 542.35452 433.96512 528.4278 458.67188 510.85743 C 532.50961 458.34731 566.15002 366.74048 543.97266 278.57227 C 542.63354 273.24845 541.54155 269.5992 540.54102 267.19922 C 536.16758 266.70524 531.97358 265.41884 528.58985 263.29688 L 508.9043 250.95118 L 480.12891 268.75586 C 479.1698 269.46778 478.55727 269.985 478.56055 270.14649 C 478.57268 270.74205 480.44592 277.06199 482.72266 284.18946 C 509.75407 368.81258 464.16629 455.96729 378.33985 483.74805 C 359.12193 489.96863 322.68124 491.7305 301.94141 487.44141 C 240.18739 474.67043 191.8837 426.66883 178.66406 364.9375 C 174.68566 346.35966 175.07149 316.08573 179.52735 297.32422 C 193.04237 240.41872 236.53528 195.70523 293.52735 180.1211 C 312.80316 174.85023 352.8699 174.90645 372.29297 180.23242 C 399.20115 187.61089 422.47436 200.88582 443.45508 220.82227 C 446.97888 224.17068 450.34459 227.03071 452.67579 228.73438 L 485.21094 208.60352 L 483.3711 185.2461 C 483.15755 182.53486 483.45844 179.6628 484.14258 176.80078 C 483.44963 175.92842 482.61359 175.01577 481.58985 173.93555 C 463.24155 154.57495 420.75418 130.73559 390.4336 122.78906 C 371.08269 117.71752 351.71973 115.20054 332.6875 115.14844 z M 331.82422 233.98828 C 317.62083 234.14282 303.69458 237.61148 289.30078 244.48047 C 265.46533 255.85521 247.9818 276.01185 239.12305 302.32618 C 230.45797 328.06523 233.4166 358.59896 246.82813 381.82032 C 261.67248 407.52252 289.27238 426.63979 317.78907 430.97071 C 374.64074 439.60491 427.18768 397.17703 431.40235 339.23633 C 432.31874 326.63818 429.50851 304.05518 426.81836 302.39258 C 426.6374 302.28074 425.61474 302.69298 424.02735 303.4668 L 378.81446 331.44141 C 377.23723 332.95787 376.61133 334.09354 376.61133 335.11133 C 376.61133 342.0638 371.27467 354.57436 365.36329 361.48047 C 353.22696 375.65904 330.57105 379.80229 313.49024 371.55469 C 297.17333 380.11555 279.79117 378.95106 273.32032 368.21094 C 266.612 357.07671 274.25999 340.05035 290.39258 329.28907 C 290.62993 319.20572 293.26182 312.9472 299.97071 305.10938 C 311.11754 292.08682 325.92566 287.30711 343.53907 291.04493 L 349.81446 292.37696 L 400.80469 260.82618 L 396.6836 257.26368 C 387.36913 249.21194 368.48561 239.75529 355.70313 236.74219 C 348.55747 235.05781 341.57406 234.14106 334.66797 234.00196 C 333.71839 233.98283 332.77112 233.97798 331.82422 233.98828 z "
       transform="matrix(0.26458333,0,0,0.26458333,16.360395,60.406592)" />
    <path
       style="display:none;fill:#903a3e;fill-opacity:1;stroke:#0d9300;stroke-width:0"
       d="m 317.78906,430.97003 c -28.51675,-4.33092 -56.11571,-23.44675 -70.9601,-49.14901 -13.41155,-23.2214 -16.37168,-53.75572 -7.70658,-79.49483 8.85877,-26.31437 26.34343,-46.47022 50.17894,-57.84498 22.33223,-10.65736 43.53548,-13.12834 66.40166,-7.73831 12.7825,3.0131 31.6655,12.46857 40.97999,20.52031 l 6.45575,5.58055 -24.78227,15.16496 -24.78226,15.16497 -10.03478,-2.12953 c -17.61343,-3.73782 -32.42109,1.04258 -43.56794,14.06516 -8.0726,9.43102 -10.2557,16.55572 -9.44875,30.83669 0.84718,14.99299 7.29436,26.17145 19.41705,33.66634 17.35866,10.73204 42.42606,7.05445 55.42441,-8.1312 5.9114,-6.90613 11.24787,-19.41691 11.24787,-26.36938 0,-2.96243 5.10187,-6.83848 24.49286,-18.60798 13.47107,-8.17637 25.04237,-14.52651 25.714,-14.11141 2.69015,1.6626 5.49904,24.24589 4.58265,36.84406 -4.21467,57.94082 -56.76071,100.36781 -113.6125,91.73359 z"
       id="path7433"
       transform="matrix(0.26458333,0,0,0.26458333,16.360395,60.406592)" />
    <path
       id="path7439"
       style="display:inline;fill:#ffffff;fill-opacity:1;stroke:#0d9300;stroke-width:0"
       d="m 167.81827,90.355462 c -0.64812,-0.03925 -1.36911,0.152807 -2.1129,0.604612 l -18.14603,11.022386 c -2.36541,1.43685 -4.03781,4.93899 -3.74928,7.85208 l 0.4539,4.58458 -45.421961,27.70715 c 0.300227,0.38581 0.600687,0.77122 0.905734,1.15339 1.403047,1.98908 2.820867,3.96708 4.174967,5.98971 0.96483,1.30906 1.6898,2.78053 2.62069,4.10837 0.64743,0.86867 1.2483,1.77075 1.85174,2.6707 l 43.94644,-26.80711 4.35361,2.90882 c 2.42872,1.62225 6.29599,1.78365 8.67033,0.36179 l 18.21447,-10.90858 c 2.37455,-1.42153 2.33111,-3.87288 -0.0977,-5.49511 l -10.4484,-6.97782 c -0.43518,-0.29066 -0.9162,-0.53354 -1.42684,-0.72969 0.1518,-0.75756 0.20162,-1.51978 0.12975,-2.24526 l -1.09872,-11.091503 c 0.14689,0.0076 0.28278,-0.0216 0.39525,-0.110221 -0.13454,0.01132 -0.26809,0.0291 -0.40125,0.04933 l -0.13653,-1.378692 c -0.0811,-0.819298 -0.30833,-1.50198 -0.64583,-2.028421 -0.48515,-0.756715 -1.19813,-1.189949 -2.03145,-1.240435 z m 5.00497,3.90836 c -0.0118,-0.01886 -0.0244,0.05553 -0.003,0.279813 0.0259,-0.148776 0.0151,-0.260909 0.003,-0.279813 z m 0.0144,0.436502 c 0.001,0.01343 0.005,0.02708 0.007,0.04028 0.0196,-0.02607 0.0215,-0.04206 -0.007,-0.04028 z" />
    <path
       id="rect423-7"
       style="display:inline;fill:#903a3e;fill-opacity:1;stroke:#0d9300;stroke-width:0"
       d="M 168.23545,96.972515 C 167.56831,95.95554 166.30676,95.750487 164.92616,96.599 l -14.73569,9.05633 c -1.92084,1.18053 -3.32303,3.94048 -3.14364,6.18795 l 0.40381,5.0604 -42.43206,25.90725 c -3.78654,2.3119 -5.609859,6.17978 -4.08826,8.67192 1.5216,2.49215 5.79496,2.63704 9.58149,0.32514 l 42.14097,-25.72952 4.322,2.67478 c 1.9172,1.18643 5.01244,1.20043 6.94017,0.0312 l 14.78845,-8.96993 c 1.92793,-1.16891 1.93645,-3.06603 0.0192,-4.25247 l -8.24718,-5.10322 c -0.34351,-0.21258 -0.7251,-0.38695 -1.13077,-0.52418 0.13505,-0.59097 0.18888,-1.18247 0.14421,-1.74219 l -0.77196,-9.667819 c -0.0504,-0.6321 -0.22039,-1.154177 -0.48145,-1.552126 z" />
  </g>
</svg>
