<?xml version="1.0" encoding="UTF-8" standalone="no"?>
<!-- Created with Inkscape (http://www.inkscape.org/) -->

<svg
   width="116.23941mm"
   height="66.230583mm"
   viewBox="0 0 116.23941 66.230583"
   version="1.1"
   id="svg5"
   xmlns="http://www.w3.org/2000/svg"
   xmlns:svg="http://www.w3.org/2000/svg">
  <defs
     id="defs2">
    <rect
       x="207.08553"
       y="303.85446"
       width="439.33099"
       height="251.59924"
       id="rect1954" />
    <rect
       x="75.479774"
       y="267.08228"
       width="656.09338"
       height="572.87213"
       id="rect1516" />
  </defs>
  <g
     id="layer1"
     transform="translate(-54.791488,-80.906689)">
    <text
       xml:space="preserve"
       transform="scale(0.26458333)"
       id="text1514"
       style="white-space:pre;shape-inside:url(#rect1516);display:inline;fill:#000000;stroke:#0d9300;stroke-width:0" />
    <path
       id="rect1836"
       style="fill:#ff0000;stroke:#0d9300;stroke-width:0"
       d="m 54.791488,80.906689 v 13.313916 h 53.124922 c 0.59232,-0.292669 1.2356,-0.440283 1.93063,-0.440283 0.0696,0 0.19091,0.03314 0.36484,0.09922 0.20871,0.03304 0.40019,0.08223 0.57412,0.148311 0.20271,0.06418 0.3877,0.128579 0.55759,0.192753 h 0.58188 c 1.27322,-1.695014 2.56263,-3.280528 3.86953,-4.751647 1.87842,-2.114458 3.7743,-3.832672 5.68751,-5.154208 1.94799,-1.354574 3.89609,-2.031917 5.84409,-2.031917 0.48699,0 0.9913,0.06628 1.51308,0.198437 0.52178,0.09912 1.00868,0.280879 1.46089,0.545187 0.487,0.264307 0.86997,0.643889 1.14825,1.139465 0.31307,0.462538 0.46974,1.074113 0.46974,1.833997 0,0.528614 -0.0348,0.924767 -0.10438,1.189074 -0.0348,0.264308 -0.087,0.446071 -0.15658,0.545187 -0.0348,0.09912 -0.087,0.132257 -0.15658,0.09922 -0.0348,-0.06608 -0.0522,-0.13236 -0.0522,-0.198437 0,-0.231269 -0.0696,-0.545084 -0.20877,-0.941545 -0.10436,-0.39646 -0.34806,-0.776559 -0.7307,-1.139982 -0.34786,-0.396461 -0.85216,-0.726847 -1.51309,-0.991154 -0.66093,-0.297345 -1.51286,-0.445967 -2.55643,-0.445967 -0.90443,0 -1.84392,0.132567 -2.81792,0.396875 -0.93921,0.231268 -1.96522,0.710276 -3.07836,1.437121 -1.11314,0.693807 -2.31323,1.668394 -3.6003,2.923853 -1.25228,1.255459 -2.62645,2.890818 -4.12223,4.90616 -0.10774,0.142781 -0.21793,0.292875 -0.32711,0.440283 H 171.0309 V 80.906689 Z m 57.702422,13.313916 h -0.56844 c -0.0608,0.08091 -0.12172,0.160944 -0.18242,0.242363 -0.018,-0.02808 -0.0363,-0.05612 -0.0698,-0.08785 -0.0348,-0.03304 -0.13923,-0.08275 -0.31316,-0.148828 -0.005,-0.0019 -0.0115,-0.0038 -0.0165,-0.0057 h -3.42718 c -0.17845,0.08817 -0.35281,0.188089 -0.52193,0.302824 -0.69571,0.495576 -1.37409,1.024297 -2.03502,1.58595 -0.7305,0.62773 -1.54814,1.371356 -2.45256,2.230355 l -2.8174,2.675801 c -0.939213,0.92508 -1.87819,1.86652 -2.817401,2.82463 -0.939211,0.95812 -1.809075,1.86694 -2.609143,2.72594 -0.221954,0.24409 -0.498226,0.53992 -0.735873,0.79891 h 0.63252 c 0.154093,-0.16423 0.325001,-0.35164 0.468705,-0.50177 2.713276,-2.87435 4.991602,-5.12075 6.835242,-6.73964 1.87842,-1.651921 3.42615,-2.874555 4.64364,-3.667477 1.2175,-0.792922 2.15699,-1.288501 2.81792,-1.486731 0.69571,-0.19823 1.21742,-0.29714 1.56528,-0.29714 h 0.31316 c 0.13256,0 0.24834,0.01601 0.34933,0.04599 -0.43146,0.583297 -0.86124,1.178346 -1.28881,1.787487 -1.77406,2.576996 -3.49587,5.104601 -5.16558,7.582481 -0.71711,1.07978 -1.42953,2.17196 -2.13785,3.2768 h 1.29915 c 1.29119,-2.31987 2.51523,-4.43529 3.65662,-6.29987 1.64628,-2.667308 3.17086,-4.945396 4.5775,-6.844543 z m -8.23412,13.144415 c -0.67637,1.21523 -1.36561,2.46995 -2.08308,3.81011 0.2435,-0.19823 0.62595,-0.496 1.14773,-0.89246 0.52179,-0.39646 1.09572,-0.79261 1.72186,-1.18907 0.62614,-0.39646 1.23489,-0.74342 1.82625,-1.04076 0.59135,-0.29735 1.09566,-0.44597 1.51308,-0.44597 0.31307,0 0.46974,0.11548 0.46974,0.34675 0,0.19823 -0.15667,0.49547 -0.46974,0.89193 -0.27828,0.39646 -0.64333,0.94176 -1.09554,1.63556 -0.45221,0.69381 -0.90429,1.43743 -1.3565,2.23036 -0.41743,0.79292 -0.78299,1.56917 -1.09606,2.32905 -0.31307,0.75989 -0.46922,1.37095 -0.46922,1.83348 0,0.52862 0.13874,0.92529 0.41703,1.18959 0.27828,0.26431 0.66125,0.39636 1.14825,0.39636 0.80006,0 1.93053,-0.49558 3.39152,-1.48673 0.88416,-0.59982 1.84599,-1.45823 2.88303,-2.56625 0.0606,-0.15105 0.12447,-0.30297 0.19533,-0.45682 0.52179,-1.09027 1.18276,-2.08142 1.98283,-2.97346 0.80007,-0.92508 1.66993,-1.68476 2.60914,-2.27945 0.974,-0.62773 1.89557,-0.94154 2.76521,-0.94154 0.487,0 0.81774,0.0823 0.99167,0.24753 0.20871,0.16519 0.31264,0.38009 0.31264,0.6444 0,0.39646 -0.13874,0.82576 -0.41703,1.2883 -0.2435,0.46253 -0.62646,0.9084 -1.14825,1.3379 -0.52178,0.39646 -1.18275,0.74342 -1.98282,1.04076 -0.80007,0.26431 -1.75646,0.39688 -2.86959,0.39688 -0.17393,0.29734 -0.36542,0.77635 -0.57413,1.43712 -0.20871,0.62773 -0.31316,1.27193 -0.31316,1.9327 0,1.35457 0.64357,2.03191 1.93063,2.03191 0.80007,0 1.61771,-0.18176 2.45257,-0.54518 0.86964,-0.36342 1.70468,-0.80981 2.50475,-1.33842 0.80007,-0.56165 1.53016,-1.15614 2.19108,-1.78387 0.18106,-0.17196 0.35324,-0.34015 0.5178,-0.5054 0.4681,-0.76391 0.91016,-1.49541 1.30845,-2.17092 0.52178,-0.82596 0.97438,-1.53593 1.35702,-2.13062 0.38264,-0.62773 0.64324,-1.09017 0.78238,-1.38752 0.17393,-0.29734 0.29578,-0.44648 0.36536,-0.44648 0.0696,0 0.24364,0.0829 0.52193,0.24805 0.27828,0.16519 0.41754,0.39666 0.41754,0.69401 0,0.0991 -0.0696,0.26431 -0.20877,0.49558 -0.10436,0.23127 -0.24362,0.4788 -0.41755,0.7431 l -0.41754,0.69402 c -0.13914,0.23127 -0.24359,0.39646 -0.31316,0.49558 -0.10436,0.16519 -0.12176,0.24753 -0.0522,0.24753 0.0696,0 0.15661,-0.0497 0.26096,-0.14883 0.34786,-0.33039 0.76512,-0.6934 1.25212,-1.08986 0.52179,-0.39646 1.06142,-0.75999 1.61799,-1.09037 0.55657,-0.36342 1.09569,-0.66067 1.61747,-0.89194 0.55657,-0.23126 1.04347,-0.34726 1.4609,-0.34726 0.31307,0 0.57366,0.0829 0.78238,0.24805 0.2435,0.13215 0.36535,0.28077 0.36535,0.44596 -0.20871,0.23127 -0.4345,0.51194 -0.67799,0.84233 -0.20872,0.33038 -0.34798,0.57843 -0.41755,0.74362 -0.0348,0.0991 -0.10442,0.14831 -0.20877,0.14831 -0.0348,0 -0.087,-0.0492 -0.15658,-0.14831 -0.0696,-0.0991 -0.17402,-0.19854 -0.31316,-0.29765 -0.10436,-0.13216 -0.26103,-0.24764 -0.46974,-0.34675 -0.20871,-0.0991 -0.50413,-0.14883 -0.88677,-0.14883 -0.45221,0 -0.95651,0.14862 -1.51308,0.44597 -0.55657,0.29734 -1.04347,0.62773 -1.4609,0.99115 -0.66092,0.52862 -1.25226,1.10705 -1.77405,1.73478 -0.487,0.62773 -0.957,1.2885 -1.40921,1.98231 -0.45222,0.66076 -0.88689,1.35468 -1.30432,2.08152 -0.41743,0.69381 -0.86951,1.40378 -1.3565,2.13062 -0.0348,0.0991 -0.13924,0.14883 -0.31316,0.14883 -0.0696,0 -0.22624,-0.0989 -0.46974,-0.29714 -0.20872,-0.19823 -0.31316,-0.34685 -0.31316,-0.44597 0,-0.19823 0.12185,-0.49599 0.36535,-0.89245 l 1.33067,-2.21175 c -0.78009,0.70082 -1.6396,1.35635 -2.58279,1.96422 -0.93921,0.59469 -1.93041,1.09027 -2.97398,1.48673 -1.00878,0.36343 -2.0179,0.54519 -3.02669,0.54519 -1.63492,0 -2.45204,-0.69391 -2.45204,-2.08153 0,-0.61436 0.10973,-1.25849 0.32452,-1.93115 -0.77726,0.77334 -1.57989,1.48584 -2.41173,2.12959 -0.90443,0.72684 -1.82652,1.30476 -2.76573,1.73426 -0.90442,0.46254 -1.73895,0.69402 -2.50424,0.69402 -0.59135,0 -1.06136,-0.1652 -1.40921,-0.49558 -0.34786,-0.29735 -0.52142,-0.72716 -0.52142,-1.28881 0,-0.52862 0.19097,-1.20596 0.57361,-2.03192 0.38264,-0.82596 0.80042,-1.65192 1.25264,-2.47788 0.487,-0.859 0.92167,-1.63525 1.30431,-2.32906 0.38264,-0.72685 0.57413,-1.239 0.57413,-1.53634 0,-0.16519 -0.0522,-0.24753 -0.15658,-0.24753 -0.31307,0 -0.88701,0.28067 -1.72186,0.84232 -0.80007,0.56166 -1.8092,1.6191 -3.02669,3.1719 -0.487,0.82596 -0.9913,1.68455 -1.513088,2.57659 -0.521784,0.89204 -0.973865,1.68538 -1.356506,2.37918 -0.278285,0.52862 -0.539399,0.79272 -0.782898,0.79272 -0.173928,0 -0.39971,-0.0497 -0.677995,-0.14883 -0.278285,-0.0661 -0.417545,-0.2147 -0.417545,-0.44597 0,-0.16519 0.05222,-0.34695 0.156579,-0.54518 1.460995,-2.51092 2.887385,-4.87282 4.278813,-7.08639 0.6918,-1.11699 1.38784,-2.22204 2.08824,-3.31453 h -8.401037 c -0.591915,0.63086 -1.238648,1.3357 -1.983858,2.17455 -0.904426,1.05723 -1.825995,2.13072 -2.765206,3.22099 -0.904426,1.05723 -1.739474,2.08153 -2.504757,3.07268 -0.765283,0.95811 -1.339217,1.75094 -1.721859,2.37867 -0.06957,0.13215 -0.174016,0.26472 -0.313159,0.39687 -0.139142,0.0991 -0.295811,0.16488 -0.469739,0.19792 -0.452212,0.0661 -0.904293,0.1655 -1.356506,0.29766 -0.417427,0.16519 -0.765062,0.37958 -1.043347,0.64389 -0.31307,0 -0.347886,-0.1652 -0.104387,-0.49558 0.104357,-0.0991 0.191395,-0.4787 0.260966,-1.13947 0.104357,-0.66076 0.190879,-1.47016 0.26045,-2.42827 0.06957,-0.99115 0.121794,-2.08174 0.156579,-3.27112 0.06957,-1.22242 0.104387,-2.44454 0.104387,-3.66696 0.01338,-0.47005 0.02174,-0.92643 0.02997,-1.38183 h -7.025928 c -0.39411,0.35533 -0.720014,0.65524 -1.143599,1.03456 -1.217496,1.09027 -2.452402,2.21348 -3.704684,3.36983 -1.217495,1.15634 -2.417587,2.31269 -3.600297,3.46903 -1.147924,1.15635 -2.208755,2.24693 -3.182751,3.27112 l -0.313159,0.29714 c -0.104357,0.0991 -0.208803,0.14883 -0.313159,0.14883 -0.521784,0 -0.991273,0.0497 -1.4087,0.14883 -0.382642,0.13215 -0.748201,0.28077 -1.096057,0.44597 -0.243499,0 -0.295722,-0.14863 -0.15658,-0.44597 0.278285,-0.39646 0.556807,-0.90861 0.835091,-1.53634 0.313071,-0.66077 0.660706,-1.42097 1.043348,-2.27997 0.173928,-0.39646 0.435042,-1.04066 0.782898,-1.9327 0.347855,-0.92507 0.730306,-1.94937 1.147733,-3.07268 0.342403,-0.94851 0.684925,-1.92467 1.027328,-2.91765 H 54.791488 v 13.31392 h 52.489302 c 0.58144,-0.48357 1.17534,-0.94356 1.78335,-1.37666 0.7305,-0.49558 1.54814,-0.74311 2.45257,-0.74311 0.0696,0 0.19091,0.0331 0.36483,0.0992 0.20872,0.033 0.4002,0.0822 0.57413,0.14831 0.20871,0.0661 0.4002,0.13236 0.57412,0.19844 0.17393,0.0661 0.27838,0.11579 0.31316,0.14883 0.17393,0.16519 0.13912,0.28067 -0.10438,0.34675 -0.10436,-0.033 -0.22621,-0.0496 -0.36536,-0.0496 h -0.31316 c -0.34785,0 -0.86956,0.0989 -1.56527,0.29714 -0.48915,0.1467 -1.13303,0.45826 -1.92702,0.93069 h 14.53038 c 0.008,-0.0121 0.0163,-0.0262 0.0238,-0.0382 0.59136,-0.92508 1.13048,-1.73499 1.61747,-2.42879 0.59136,-0.859 1.20011,-1.6684 1.82625,-2.42828 0.62614,-0.75988 1.42637,-1.51956 2.40037,-2.27945 1.32185,-1.05723 2.53935,-1.86662 3.65249,-2.42827 1.11314,-0.56166 1.86063,-0.84233 2.24327,-0.84233 0.0224,0 0.0423,0.004 0.0641,0.005 0.60379,-0.599 1.24291,-1.11358 1.91875,-1.54151 0.97399,-0.62773 1.89608,-0.94154 2.76572,-0.94154 0.487,0 0.81723,0.0823 0.99115,0.24753 0.20872,0.16519 0.31316,0.38009 0.31316,0.6444 0,0.39646 -0.13926,0.82576 -0.41754,1.2883 -0.2435,0.46253 -0.62595,0.9084 -1.14774,1.3379 -0.52178,0.39646 -1.18275,0.74342 -1.98282,1.04076 -0.56939,0.1881 -1.21973,0.30854 -1.94768,0.36277 -0.0591,0.15459 -0.1187,0.30984 -0.19172,0.48007 -0.37236,0.86805 -0.91263,1.87914 -1.61438,3.02876 0.0334,1.28333 0.67477,1.92701 1.92754,1.92701 0.80006,0 1.6177,-0.18176 2.45256,-0.54518 0.86964,-0.36342 1.70417,-0.80981 2.50424,-1.33842 0.80007,-0.56165 1.53067,-1.15614 2.1916,-1.78387 0.69571,-0.66077 1.26964,-1.27183 1.72185,-1.83348 0.0696,-0.0661 0.13921,-0.0827 0.20878,-0.0496 0.10435,0.033 0.15658,0.0988 0.15658,0.19792 -0.59136,0.69381 -1.30455,1.42086 -2.13941,2.18074 -0.80007,0.72685 -1.68682,1.40419 -2.66082,2.03192 -0.93921,0.59469 -1.93092,1.09027 -2.97449,1.48673 -1.00878,0.36343 -2.01739,0.54519 -3.02617,0.54519 -0.83225,0 -1.45124,-0.18097 -1.85984,-0.54054 -0.36334,0.51257 -0.74676,1.03669 -1.16634,1.5813 -0.16104,0.21098 -0.33275,0.42206 -0.50177,0.63304 h 8.94312 c 0.58114,-0.72808 1.17231,-1.45268 1.78542,-2.16938 1.49578,-1.78407 2.97439,-3.35366 4.43539,-4.70824 1.49578,-1.35457 3.0261,-2.37836 4.59145,-3.07216 1.18271,-0.52862 2.20872,-0.79323 3.07836,-0.79323 0.41743,0 0.74818,0.0497 0.99168,0.14882 0.27828,0.0991 0.41754,0.23117 0.41754,0.39636 0,0.19823 -0.10445,0.39657 -0.31316,0.5948 -0.20871,0.19823 -0.34797,0.4789 -0.41754,0.84232 -0.0696,0.23127 -0.19143,0.34675 -0.36536,0.34675 -0.10435,0 -0.2088,-0.016 -0.31316,-0.0491 -0.10435,-0.0661 -0.2431,-0.13236 -0.41702,-0.19844 -0.13915,-0.0661 -0.33063,-0.11579 -0.57413,-0.14883 -0.20871,-0.0661 -0.52205,-0.0992 -0.93948,-0.0992 -0.59135,0 -1.18269,0.0829 -1.77405,0.24804 -0.59135,0.13216 -1.13047,0.34706 -1.61747,0.64441 -0.974,0.59469 -2.03483,1.43722 -3.18275,2.52749 -1.11314,1.09027 -2.13916,2.27924 -3.07837,3.56774 -0.47812,0.65066 -0.93695,1.28788 -1.39164,1.92185 h 20.38635 c 0.2248,-0.27713 0.46338,-0.55435 0.72864,-0.83147 0.38264,-0.39647 0.64323,-0.54509 0.78238,-0.44597 -0.10436,0.19823 -0.19088,0.37999 -0.26045,0.54518 -0.0348,0.13216 -4.9e-4,0.28078 0.10387,0.44597 0.0803,0.0954 0.19993,0.19091 0.34985,0.28629 h 8.13438 v -13.31392 z m 58.63673,13.31392 h -1.70429 c -0.07,0.0863 -0.14476,0.1726 -0.21084,0.2589 -0.20872,0.2643 -0.22612,0.51184 -0.0522,0.7431 0.20871,0.19824 0.9045,0.47943 2.08721,0.84285 1.32185,0.36342 2.22653,0.80929 2.71353,1.3379 0.48699,0.49558 0.73018,1.18949 0.73018,2.08153 0,0.79292 -0.17356,1.5034 -0.52141,2.13113 -0.34786,0.62773 -0.83527,1.23879 -1.46141,1.83348 -0.62614,0.56166 -1.37364,1.123 -2.24327,1.68465 -0.83486,0.56166 -1.73954,1.15666 -2.71353,1.78439 -0.24103,0.16024 -0.44811,0.30211 -0.65991,0.44649 h 0.84852 c 0.37156,-0.24787 0.76891,-0.50756 1.22009,-0.79324 0.76528,-0.46253 1.61773,-1.0244 2.55695,-1.68517 1.11313,-0.79292 1.983,-1.5034 2.60914,-2.13113 0.66092,-0.66077 1.14782,-1.25526 1.46089,-1.78387 0.34786,-0.56165 0.55623,-1.05723 0.6258,-1.48673 0.10436,-0.4295 0.15658,-0.79303 0.15658,-1.09038 0,-0.95811 -0.31282,-1.68517 -0.93896,-2.18074 -0.59135,-0.52862 -1.40899,-0.94134 -2.45256,-1.23869 -0.7305,-0.19823 -1.28703,-0.37999 -1.66967,-0.54518 -0.14701,-0.0698 -0.27112,-0.13948 -0.38085,-0.20929 z m -3.18741,13.14442 c -0.23003,0.15345 -0.45883,0.30648 -0.65835,0.44545 -0.52179,0.36342 -0.93905,0.71038 -1.25212,1.04076 -0.27829,0.29735 -0.41755,0.62773 -0.41755,0.99115 0,0.46254 0.087,0.85921 0.26097,1.1896 0.20871,0.33038 0.50464,0.66077 0.88728,0.99115 0.31307,0.23127 0.29566,0.34675 -0.0522,0.34675 -0.17393,-0.033 -0.36541,-0.0496 -0.57413,-0.0496 -0.20871,-0.033 -0.53894,-0.0165 -0.99115,0.0496 -0.41743,-0.26431 -0.67854,-0.57812 -0.7829,-0.94155 -0.10436,-0.39646 -0.15658,-0.8097 -0.15658,-1.2392 0,-0.2643 0.0696,-0.49526 0.20877,-0.69349 0.17393,-0.23127 0.34801,-0.41304 0.52194,-0.54519 0.27828,-0.26431 0.64332,-0.5455 1.09554,-0.84284 0.29554,-0.21593 0.66239,-0.47022 1.06195,-0.74259 h -12.31915 c -0.008,0.17797 -0.0134,0.35885 -0.0134,0.54467 0,0.92507 0.17407,1.68475 0.52193,2.27944 0.38264,0.59469 1.02621,0.89194 1.93063,0.89194 0.90443,0 1.72207,-0.28067 2.45256,-0.84233 0.7305,-0.56165 1.33925,-1.17271 1.82625,-1.83348 0.0696,-0.16519 0.1735,-0.2149 0.31264,-0.14883 0.17393,0.0661 0.19134,0.16551 0.0522,0.29766 -0.59135,0.75988 -1.32144,1.45328 -2.19108,2.08101 -0.83485,0.59469 -1.79175,0.89245 -2.87011,0.89245 -0.59135,0 -1.18269,-0.13257 -1.77405,-0.39687 -0.55657,-0.29735 -1.00865,-0.72664 -1.3565,-1.2883 -0.2435,0.52862 -0.55684,1.13968 -0.93948,1.83348 -0.38264,0.66077 -0.83472,1.33811 -1.35651,2.03192 -0.52178,0.66077 -1.11312,1.27183 -1.77405,1.83348 -0.62614,0.56165 -1.30452,1.02461 -2.03502,1.38803 -0.62614,0.26431 -1.14785,0.39636 -1.56528,0.39636 -1.18327,0 -1.80703,-0.47253 -1.87223,-1.41645 -0.40461,0.50997 -0.82279,0.9848 -1.25832,1.41645 -0.76529,0.82596 -1.58293,1.47016 -2.45257,1.9327 -0.83485,0.46253 -1.66938,0.69401 -2.50424,0.69401 -0.93921,0 -1.635,-0.24805 -2.08721,-0.74362 -0.45221,-0.46254 -0.67851,-1.0736 -0.67851,-1.83348 0,-0.79292 0.15667,-1.63546 0.46974,-2.5275 0.34785,-0.92507 0.86957,-2.04828 1.56528,-3.36982 -0.974,1.12331 -1.82646,2.06475 -2.55695,2.82464 -0.7305,0.75988 -1.37406,1.35437 -1.93063,1.78387 -0.55657,0.4295 -1.04347,0.72726 -1.4609,0.89245 -0.38264,0.19823 -0.73027,0.29714 -1.04334,0.29714 -0.487,0 -0.81775,-0.11548 -0.99167,-0.34675 -0.17393,-0.26431 -0.26097,-0.59469 -0.26097,-0.99115 0,-0.29735 0.087,-0.67745 0.26097,-1.13999 0.112,-0.31914 0.2561,-0.63093 0.42581,-0.93637 -0.3748,0.3056 -0.75797,0.60323 -1.156,0.88676 -0.93921,0.69381 -1.93093,1.27224 -2.9745,1.73478 -1.04357,0.46254 -2.08699,0.6935 -3.13056,0.6935 -0.90442,0 -1.56539,-0.19833 -1.98282,-0.5948 -0.38264,-0.42949 -0.57413,-0.94164 -0.57413,-1.53634 0,-0.54964 0.2333,-1.32041 0.67903,-2.2934 -0.0877,0.0874 -0.17234,0.17431 -0.26148,0.262 -0.93921,0.92508 -1.8956,1.7671 -2.86959,2.52698 -0.974,0.75988 -1.94831,1.37146 -2.92231,1.834 -0.93921,0.46254 -1.80855,0.6935 -2.60862,0.6935 -0.69571,0 -1.18261,-0.1652 -1.46089,-0.49558 -0.27829,-0.33039 -0.41755,-0.74311 -0.41755,-1.23869 0,-0.46253 0.13926,-1.07359 0.41755,-1.83348 0.31307,-0.79292 0.76515,-1.63545 1.3565,-2.52749 -0.45221,0.56165 -0.97392,1.15614 -1.56528,1.78387 -0.59135,0.62773 -1.2001,1.20616 -1.82624,1.73478 -0.626143,0.49557 -1.2523,0.92487 -1.87844,1.28829 -0.626141,0.33039 -1.182668,0.49558 -1.669666,0.49558 -0.730497,0 -1.096057,-0.34696 -1.096057,-1.04076 0,-0.75989 0.313337,-1.7179 0.939477,-2.87425 0.626141,-1.15634 1.460673,-2.26298 2.50424,-3.32021 1.032421,-1.04383 2.193936,-1.93481 3.481446,-2.6758 h -7.678605 c -0.152081,0.16957 -0.28742,0.316 -0.446485,0.49506 -0.904425,1.05723 -1.825995,2.13072 -2.765206,3.22099 -0.904425,1.05723 -1.739473,2.08153 -2.504756,3.07268 -0.765283,0.95811 -1.339218,1.75094 -1.721859,2.37867 -0.06957,0.13215 -0.174017,0.26472 -0.313159,0.39687 -0.139143,0.0991 -0.295811,0.16488 -0.469739,0.19792 -0.452213,0.0661 -0.904294,0.1655 -1.356506,0.29766 -0.417428,0.16519 -0.765063,0.37958 -1.043348,0.64389 -0.31307,0 -0.347885,-0.1652 -0.104386,-0.49558 0.104357,-0.0991 0.191395,-0.4787 0.260966,-1.13947 0.104357,-0.66076 0.190878,-1.47016 0.260449,-2.42827 0.06957,-0.99115 0.121794,-2.08174 0.15658,-3.27112 0.06392,-1.12319 0.09506,-2.24611 0.100252,-3.3693 h -8.850106 c -0.986468,0.88884 -1.980945,1.79314 -2.989998,2.72489 -1.217496,1.15635 -2.417587,2.3127 -3.600297,3.46904 -1.147925,1.15635 -2.209272,2.24693 -3.183268,3.27112 l -0.312643,0.29714 c -0.104357,0.0991 -0.208802,0.14883 -0.313159,0.14883 -0.521784,0 -0.991272,0.0497 -1.408699,0.14883 -0.382642,0.13215 -0.748202,0.28077 -1.096058,0.44596 -0.243499,0 -0.295722,-0.14862 -0.156579,-0.44596 0.278285,-0.39646 0.556806,-0.90861 0.835091,-1.53634 0.31307,-0.66077 0.660706,-1.42097 1.043347,-2.27997 0.173928,-0.39646 0.435042,-1.04066 0.782898,-1.9327 0.347856,-0.92507 0.730307,-1.94937 1.147734,-3.07268 0.146907,-0.40695 0.293893,-0.82302 0.4408,-1.23816 H 54.791488 v 13.31391 H 171.0309 v -13.31391 z m -92.625349,0 h 2.197798 c 0.0962,-0.29955 0.186077,-0.5911 0.283704,-0.89246 0.86964,-2.57699 1.756394,-5.00569 2.660819,-7.28534 0.139143,-0.36342 0.295811,-0.743 0.469739,-1.13946 0.173928,-0.39647 0.330597,-0.75999 0.469739,-1.09038 0.173928,-0.36342 0.33008,-0.66066 0.469222,-0.89193 0.139142,-0.26431 0.260996,-0.44607 0.365352,-0.54519 0.104357,-0.0661 0.15658,-0.1655 0.15658,-0.29766 0,-0.13215 -0.08704,-0.19792 -0.260966,-0.19792 -0.06957,0 -0.174017,0.0332 -0.313159,0.0992 -0.104357,0.033 -0.382362,0.0988 -0.834575,0.19792 -0.417427,0.0991 -1.078399,0.24774 -1.982824,0.44597 -0.904426,0.16519 -2.191555,0.39667 -3.861263,0.69402 -0.208714,0.033 -0.31316,0.11537 -0.31316,0.24753 0.03479,0.13215 0.139232,0.19843 0.31316,0.19843 0.31307,0 0.712928,-0.0663 1.199926,-0.19843 0.521784,-0.13216 1.026605,-0.19792 1.513603,-0.19792 0.521784,0 0.782381,0.23096 0.782381,0.69349 0,0.23127 -0.121853,0.74342 -0.365352,1.53634 -0.243499,0.75989 -0.556319,1.68528 -0.938961,2.77554 -0.347856,1.09027 -0.748231,2.26319 -1.200443,3.51865 -0.270521,0.79221 -0.5408,1.56512 -0.81132,2.32958 z m 2.197798,0 c -0.726451,2.26199 -1.419399,4.48147 -2.064473,6.64042 -0.104357,0.36342 -0.121765,0.56124 -0.05219,0.59428 0.104356,0 0.208802,-0.0492 0.313159,-0.14831 1.49578,-1.32154 3.113137,-2.79171 4.852417,-4.41059 0.967511,-0.88288 1.953229,-1.7831 2.931087,-2.6758 z m 5.979997,0 h 0.633036 c 0.237784,-0.21426 0.478214,-0.43317 0.714685,-0.64493 1.217496,-1.09026 2.313142,-2.08142 3.287138,-2.97346 1.008782,-0.89203 1.861238,-1.65172 2.55695,-2.27945 0.730497,-0.62772 1.234801,-1.05754 1.513086,-1.28881 0.243499,-0.16519 0.417058,-0.24753 0.521415,-0.24753 0.243499,0 0.365353,0.23148 0.365353,0.69402 0,0.82596 -0.01741,1.80055 -0.05219,2.92385 0,1.12331 -0.01741,2.29623 -0.05219,3.51865 0,0.0992 -0.0037,0.19843 -0.0041,0.29766 h 2.195732 v -1.98283 c 0.03478,-1.05723 0.0696,-2.08153 0.104386,-3.07268 0.06957,-0.99115 0.139202,-1.91603 0.208773,-2.77502 0.06957,-0.859 0.139201,-1.56949 0.208773,-2.13114 0.03478,-0.23127 0.121823,-0.44617 0.260966,-0.6444 0.139142,-0.19824 0.295294,-0.33029 0.469222,-0.39636 0.06957,-0.0661 0.05216,-0.14842 -0.05219,-0.24753 -0.06957,-0.0991 -0.156092,-0.13226 -0.260449,-0.0992 -1.460995,1.25546 -3.061461,2.67591 -4.80074,4.26175 -1.73928,1.55281 -3.530713,3.1716 -5.374349,4.85655 -0.822369,0.75103 -1.628084,1.48668 -2.443262,2.23088 z m 11.678874,0 v 1.04024 c 0,1.51977 0.01741,2.7916 0.05219,3.81579 0.03478,1.02419 0.05219,1.85016 0.05219,2.47789 0,0.23126 0.03482,0.34674 0.104386,0.34674 0.104357,0 0.208803,-0.0658 0.31316,-0.19792 0.62614,-0.72684 1.30452,-1.50309 2.035018,-2.32905 0.765283,-0.859 1.530184,-1.73468 2.295467,-2.62672 0.769654,-0.85812 1.521314,-1.69942 2.258777,-2.52697 z m 7.111194,0 h 0.640271 c 0.745891,-0.8317 1.428192,-1.57752 2.006079,-2.18127 2.713276,-2.87434 4.991606,-5.12075 6.835246,-6.73964 1.87842,-1.65192 3.42614,-2.87455 4.64364,-3.66747 0.31645,-0.2061 0.61205,-0.39012 0.8909,-0.55604 h -1.78697 c -0.0839,0.0697 -0.16835,0.13849 -0.25166,0.20929 -0.7305,0.62773 -1.54814,1.37135 -2.45257,2.23035 l -2.8174,2.67581 c -0.93921,0.92507 -1.878701,1.86652 -2.817912,2.82463 -0.939211,0.95812 -1.808558,1.86694 -2.608627,2.72593 -0.660926,0.72685 -1.391529,1.51967 -2.191597,2.37867 -0.02909,0.0327 -0.06026,0.067 -0.0894,0.0997 z m 8.318876,0 h 1.10587 c 0.96909,-0.62686 1.97923,-0.94207 3.03082,-0.94207 l 0.0522,0.0496 c -0.15663,0.26033 -0.35734,0.60422 -0.52865,0.89246 h 1.46399 c 0.17599,-0.29853 0.33811,-0.57897 0.52555,-0.89246 0.20871,0 0.52205,0.0166 0.93948,0.0496 0.41742,0.033 0.73024,0.0822 0.93896,0.14831 0.10436,0 0.15658,-0.0492 0.15658,-0.14831 0,-0.0991 -0.087,-0.18197 -0.26097,-0.24804 -0.17393,-0.033 -0.43452,-0.0662 -0.78238,-0.0992 -0.34786,-0.033 -0.60897,-0.0496 -0.7829,-0.0496 0.17393,-0.26431 0.3306,-0.51184 0.46974,-0.74311 0.17393,-0.26431 0.34801,-0.47921 0.52193,-0.6444 l -0.10438,-0.0496 -1.4609,0.39687 c -0.13914,0.0661 -0.2784,0.16499 -0.41754,0.29714 -0.13914,0.13216 -0.29581,0.36363 -0.46974,0.69402 -1.46099,0 -2.86998,0.39615 -4.22662,1.18907 -0.0578,0.0324 -0.11376,0.0668 -0.17104,0.0997 z m 5.12423,0 c -1.32636,2.24987 -2.34692,4.10036 -3.02255,5.50044 -0.7305,1.5528 -1.09554,2.70915 -1.09554,3.46903 0,0.29735 0.0696,0.54488 0.20877,0.74311 0.17393,0.19823 0.50415,0.29766 0.99115,0.29766 0.55657,0 1.21754,-0.18177 1.98283,-0.54519 0.76528,-0.39646 1.58292,-0.92518 2.45256,-1.58595 0.86964,-0.6938 1.75639,-1.48663 2.66082,-2.37866 0.34636,-0.32897 0.68379,-0.6668 1.01596,-1.00925 0.47561,-0.92045 1.0047,-1.87138 1.59318,-2.85615 0.3347,-0.56009 0.66938,-1.1027 1.00408,-1.63504 z m 7.79126,0 h 1.65313 c 0.14048,-0.23148 0.28067,-0.46938 0.42116,-0.69454 0.55657,-0.89203 0.99176,-1.602 1.30483,-2.13061 1.77406,-0.92508 3.44364,-1.98252 5.00899,-3.1719 1.56536,-1.22242 2.99123,-2.49426 4.2783,-3.81579 1.11082,-1.11056 2.10491,-2.22102 2.99465,-3.33158 h -0.7705 c -0.16266,0.21769 -0.32968,0.43589 -0.50178,0.65526 -1.32185,1.68495 -2.90491,3.33688 -4.74855,4.95577 -1.80885,1.58584 -3.75695,2.94052 -5.84408,4.06383 1.49578,-2.27965 2.78291,-4.24539 3.86126,-5.89731 0.98539,-1.4916 1.8116,-2.7261 2.52439,-3.77755 h -1.86965 c -0.54998,0.88131 -1.13259,1.80862 -1.75028,2.78639 -0.62614,0.99115 -1.26971,2.01545 -1.93063,3.07268 -0.62614,1.02419 -1.23489,2.01535 -1.82625,2.97346 -0.34785,0.56166 -0.88697,1.38762 -1.61747,2.47789 -0.3958,0.59073 -0.79173,1.20447 -1.18752,1.834 z m 10.1818,-13.14442 h 4.70876 c 0.75416,-1.00929 1.40562,-2.00029 1.95699,-2.97346 -0.0724,-0.23054 -0.11111,-0.48989 -0.11111,-0.78187 0,-0.92507 0.24371,-1.91623 0.73071,-2.97346 0.3259,-0.68098 0.70603,-1.32337 1.1405,-1.92701 -0.0932,-0.26627 -0.29762,-0.40205 -0.61857,-0.40205 -0.17393,0 -0.36541,0.0492 -0.57413,0.14832 -0.20871,0.0991 -0.48723,0.31402 -0.83509,0.6444 -0.31307,0.29735 -0.71293,0.72716 -1.19992,1.28881 -0.45222,0.56165 -1.04356,1.28819 -1.77406,2.18023 -0.27828,0.36342 -0.67814,0.89214 -1.19992,1.58595 -0.487,0.69381 -1.13057,1.61868 -1.93063,2.77502 -0.0878,0.12891 -0.20112,0.29881 -0.29353,0.43512 z m -8.52867,13.14442 c -0.41609,0.68558 -0.83242,1.38964 -1.24851,2.13062 -0.52178,0.99115 -0.99127,1.96573 -1.4087,2.92385 -0.38264,0.95811 -0.57412,1.76751 -0.57412,2.42827 0,1.05723 0.5043,1.58595 1.51308,1.58595 0.86964,0 1.77432,-0.23147 2.71353,-0.69401 0.93921,-0.46254 1.82649,-1.0244 2.66134,-1.68517 0.49144,-0.37341 0.95807,-0.75839 1.40508,-1.1529 1.20559,-1.7727 2.52765,-3.24093 3.96927,-4.39715 0.55031,-0.43177 1.14664,-0.80929 1.78335,-1.13946 z m 10.81432,0 h 0.87695 c 0.70719,-0.36713 1.64611,-0.56602 2.81843,-0.59532 -0.1003,0.20112 -0.20801,0.39759 -0.31367,0.59532 h 1.21129 c 1.04915,-1.86472 2.27356,-3.90665 3.69384,-6.14588 1.41012,-2.2059 3.00384,-4.54216 4.7656,-6.99854 h -0.91571 c -1.13339,1.41997 -2.2118,2.85945 -3.22358,4.32273 -1.53056,2.21358 -3.13103,4.70804 -4.80074,7.48327 -1.52909,0.26011 -2.89776,0.70855 -4.11241,1.33842 z m 4.593,0 c -0.23565,0.41883 -0.47243,0.83822 -0.68936,1.23816 -1.18271,2.18054 -2.06946,4.04737 -2.66082,5.60018 -0.59135,1.51976 -0.88728,2.64297 -0.88728,3.36982 0,0.56165 0.12185,1.02461 0.36535,1.38803 0.27828,0.36342 0.71296,0.54467 1.30431,0.54467 0.93921,0 1.82648,-0.28068 2.66134,-0.84233 0.86964,-0.56165 1.68728,-1.25557 2.45256,-2.08153 0.35143,-0.39446 0.68612,-0.80835 1.00821,-1.23765 0.0358,-0.46948 0.13332,-0.94857 0.2961,-1.43815 0.2435,-0.62773 0.53892,-1.23931 0.88677,-1.834 0.34786,-0.59469 0.71342,-1.15603 1.09606,-1.68465 0.41743,-0.52861 0.79988,-0.95843 1.14773,-1.28881 0.64124,-0.66703 1.36319,-1.24492 2.16525,-1.73374 z m 9.14622,0 h 1.19062 c 0.23804,-0.19635 0.47613,-0.36422 0.71417,-0.4961 0.41743,-0.2643 0.81728,-0.39636 1.19993,-0.39636 0.13914,0 0.20877,0.0823 0.20877,0.24753 0,0.20896 0.007,0.42505 0.0186,0.64493 h 1.71669 c 0.0211,-0.45492 0.0681,-0.88511 0.14315,-1.28881 0.13914,-0.56166 0.33062,-1.02461 0.57412,-1.38803 0.0696,-0.13216 0.0522,-0.21449 -0.0522,-0.24753 -0.10436,-0.0661 -0.2088,-0.0661 -0.31316,0 -0.13914,0.0661 -0.29581,0.11579 -0.46974,0.14882 l -0.52141,0.0987 c -0.34786,0.0661 -0.59157,0.28098 -0.73071,0.6444 -0.13914,0.33039 -0.24359,0.62763 -0.31316,0.89194 -1.07835,0.0991 -2.08696,0.41293 -3.02617,0.94154 -0.11477,0.0646 -0.22787,0.13091 -0.33951,0.19896 z m 3.33209,0 h -2.14147 c -0.17939,0.14796 -0.35856,0.31048 -0.53795,0.49506 -0.41743,0.39646 -0.83521,0.85889 -1.25264,1.38751 -0.41743,0.52861 -0.79988,1.0739 -1.14773,1.63556 -0.45221,0.72684 -0.86948,1.51967 -1.25212,2.37866 -0.34786,0.82596 -0.50453,1.61879 -0.46974,2.37867 0,0.23127 0.0348,0.44617 0.10439,0.64441 0.10435,0.19823 0.31324,0.29713 0.62631,0.29713 0.59136,0 1.23441,-0.31381 1.93012,-0.94154 0.69571,-0.62773 1.35668,-1.35427 1.98282,-2.18023 0.62614,-0.859 1.14837,-1.7181 1.5658,-2.5771 0.45221,-0.859 0.71281,-1.51977 0.78238,-1.98231 -0.0696,-0.29735 -0.12179,-0.6443 -0.15658,-1.04076 -0.0148,-0.16851 -0.0251,-0.33252 -0.0336,-0.49506 z m -13.6896,0 h -2.50476 c -0.0902,0.0468 -0.17781,0.096 -0.26045,0.14831 -0.69571,0.4295 -1.32187,0.97427 -1.87844,1.63504 -1.32185,1.5528 -2.26083,2.89092 -2.8174,4.01423 -0.55656,1.09026 -0.83509,1.89966 -0.83509,2.42827 0,0.16519 0.0696,0.28119 0.20878,0.34727 0.13914,0.0661 0.24358,0.0987 0.31316,0.0987 0.24349,0 0.67817,-0.24753 1.30431,-0.74311 0.66093,-0.49557 1.37412,-1.15635 2.1394,-1.98231 0.80007,-0.859 1.61771,-1.85015 2.45257,-2.97346 0.70111,-0.94336 1.324,-1.93638 1.87792,-2.97294 z m -25.10441,0 h -2.55437 c -0.12083,0.0781 -0.24115,0.15911 -0.3607,0.24701 -1.07835,0.79292 -2.03474,1.73488 -2.86959,2.82515 -0.834857,1.05723 -1.513237,2.11415 -2.03502,3.17138 -0.486999,1.05723 -0.730705,1.834 -0.730705,2.32958 0,0.2643 0.104445,0.39635 0.313159,0.39635 0.208714,0 0.521534,-0.13205 0.938961,-0.39635 0.452212,-0.26431 0.957033,-0.61127 1.513605,-1.04077 0.55657,-0.46253 1.11309,-0.99126 1.66966,-1.58595 0.59136,-0.59469 1.13048,-1.23889 1.61748,-1.9327 0.55656,-0.79292 1.09568,-1.63545 1.61747,-2.52749 0.326,-0.55733 0.59478,-1.00626 0.88005,-1.48621 z M 66.000623,107.36502 h 2.165759 c 0.78303,-2.28325 1.579035,-4.45414 2.390035,-6.49831 0.139142,-0.36342 0.295811,-0.743 0.469739,-1.139464 0.173928,-0.396461 0.330596,-0.759989 0.469738,-1.090373 0.173928,-0.363422 0.33008,-0.660666 0.469222,-0.891935 0.139143,-0.264307 0.260996,-0.446071 0.365353,-0.545186 0.104357,-0.06608 0.156579,-0.165503 0.156579,-0.297656 0,-0.132154 -0.08704,-0.197921 -0.260966,-0.197921 -0.06957,0 -0.174016,0.03314 -0.313159,0.09922 -0.104357,0.03304 -0.382362,0.0988 -0.834574,0.19792 -0.417427,0.09912 -1.0784,0.247737 -1.982825,0.445968 -0.904425,0.165192 -2.191555,0.396669 -3.861263,0.694014 -0.208713,0.03304 -0.313159,0.115377 -0.313159,0.24753 0.03478,0.132154 0.139231,0.198438 0.313159,0.198438 0.31307,0 0.712929,-0.06628 1.199927,-0.198438 0.521784,-0.132153 1.026604,-0.19792 1.513603,-0.19792 0.521783,0 0.782381,0.23096 0.782381,0.693497 0,0.231269 -0.121854,0.743419 -0.365353,1.536336 -0.243499,0.75989 -0.556319,1.68528 -0.93896,2.77554 -0.347856,1.09027 -0.747715,2.26319 -1.199927,3.51865 -0.07502,0.21971 -0.150285,0.43252 -0.225309,0.65009 z m 2.165759,0 c -0.0902,0.26303 -0.180953,0.52084 -0.270785,0.78703 -0.834854,2.577 -1.617679,5.08804 -2.348177,7.53288 -0.104357,0.36342 -0.121764,0.56124 -0.05219,0.59428 0.104357,0 0.208802,-0.0492 0.313159,-0.14831 1.495781,-1.32154 3.113138,-2.79171 4.852417,-4.41059 1.574677,-1.43693 3.168169,-2.89232 4.770252,-4.35529 z m 7.264673,0 h 0.652156 c 0.738668,-0.66597 1.50841,-1.35721 2.143539,-1.9389 1.008782,-0.89203 1.861238,-1.65171 2.55695,-2.27944 0.730497,-0.62773 1.234801,-1.05755 1.513085,-1.28881 0.2435,-0.1652 0.417059,-0.24753 0.521416,-0.24753 0.243499,0 0.365352,0.23147 0.365352,0.69401 0,0.82596 -0.01741,1.80055 -0.05219,2.92385 0,0.69137 -0.009,1.40791 -0.02222,2.13682 h 2.161625 v -0.30334 c 0.03479,-1.05723 0.0696,-2.08153 0.104387,-3.07268 0.06957,-0.99115 0.139201,-1.91602 0.208772,-2.77502 0.06957,-0.859 0.139202,-1.569486 0.208773,-2.131139 0.03479,-0.231269 0.121824,-0.446175 0.260966,-0.644405 0.139142,-0.198231 0.295294,-0.330282 0.469222,-0.396358 0.06957,-0.06608 0.05216,-0.148415 -0.05219,-0.24753 -0.06957,-0.09912 -0.156093,-0.132258 -0.260449,-0.09922 -1.460995,1.255459 -3.061461,2.675912 -4.800741,4.261752 -1.739279,1.55281 -3.530712,3.1716 -5.374349,4.85656 -0.203298,0.18566 -0.401239,0.36614 -0.604097,0.55138 z m 9.839709,0 v 2.71973 c 0,1.51977 0.01741,2.7916 0.05219,3.81579 0.03479,1.02419 0.05219,1.85016 0.05219,2.47789 0,0.23126 0.03481,0.34674 0.104386,0.34674 0.104357,0 0.208802,-0.0658 0.313159,-0.19792 0.626141,-0.72684 1.304521,-1.50309 2.035018,-2.32905 0.765283,-0.859 1.530184,-1.73468 2.295467,-2.62672 0.800069,-0.89203 1.582894,-1.76771 2.348177,-2.62671 0.531387,-0.57053 0.985718,-1.06752 1.455725,-1.57975 z M 156.49432,95.167834 c -0.31307,0 -0.59159,0.148622 -0.83509,0.445968 -0.59135,0.82596 -1.13047,1.635354 -1.61747,2.428276 -0.45221,0.792921 -0.9217,1.602315 -1.4087,2.428272 -0.487,0.82596 -0.97389,1.6685 -1.46089,2.5275 -0.45221,0.82596 -0.93911,1.70164 -1.46089,2.62671 -0.13915,0.23127 -0.12174,0.39646 0.0522,0.49558 0.20871,0.0661 0.38227,-2.1e-4 0.52141,-0.19844 0.2435,-0.39646 0.52202,-0.82576 0.83509,-1.28829 0.31308,-0.49558 0.6433,-0.97459 0.99116,-1.43713 0.34785,-0.49557 0.6786,-0.95801 0.99167,-1.38751 0.31307,-0.4295 0.57367,-0.79302 0.78238,-1.09037 0.2435,-0.29735 0.55684,-0.71059 0.93948,-1.239201 0.41743,-0.528614 0.79988,-1.040764 1.14773,-1.53634 0.38264,-0.528615 0.71339,-0.991051 0.99167,-1.387512 0.27829,-0.4295 0.41703,-0.693602 0.41703,-0.792717 0,-0.165192 -0.12134,-0.297243 -0.36483,-0.396358 -0.20872,-0.132154 -0.38279,-0.198438 -0.52194,-0.198438 z m 4.95681,12.785786 c 0.55657,0 0.83509,0.16519 0.83509,0.49557 -0.10436,0.1652 -0.2088,0.36353 -0.31316,0.5948 -0.10436,0.19823 -0.1914,0.37999 -0.26097,0.54519 -0.10435,0.16519 -0.19139,0.18176 -0.26096,0.0496 -0.20872,-0.4295 -0.64339,-0.64441 -1.30432,-0.64441 -0.48699,0 -0.97389,0.13205 -1.46089,0.39636 -0.487,0.26431 -0.7307,0.66098 -0.7307,1.18959 0,0.26431 0.087,0.52841 0.26096,0.79272 0.17393,0.2643 0.41712,0.61126 0.73019,1.04076 0.27829,0.39646 0.5394,0.79313 0.7829,1.18959 0.2435,0.39646 0.36535,0.80919 0.36535,1.23869 0,0.85899 -0.20889,1.56948 -0.62632,2.13113 -0.41742,0.52862 -0.92173,0.95791 -1.51308,1.2883 -0.55657,0.33038 -1.13051,0.54529 -1.72186,0.6444 -0.59136,0.13215 -1.06085,0.19844 -1.4087,0.19844 -2.12192,0 -3.2872,-0.67734 -3.49591,-2.03192 0.17393,-0.0991 0.36489,-0.21511 0.57361,-0.34727 0.2435,-0.16519 0.41757,-0.31381 0.52193,-0.44596 0.0696,0 0.12179,0.0663 0.15658,0.19843 0.17393,0.5947 0.50415,1.10685 0.99115,1.53635 0.487,0.42949 1.06093,0.6444 1.72186,0.6444 0.27828,0 0.60903,-0.0166 0.99167,-0.0496 0.38264,-0.0661 0.73028,-0.18207 1.04335,-0.34726 0.34785,-0.19824 0.64378,-0.46234 0.88728,-0.79272 0.2435,-0.33039 0.36535,-0.77625 0.36535,-1.3379 0,-0.4295 -0.087,-0.82617 -0.26096,-1.1896 -0.17393,-0.36342 -0.36541,-0.6938 -0.57413,-0.99115 l -0.62631,-0.99115 c -0.20872,-0.33039 -0.31265,-0.69392 -0.31265,-1.09038 0,-0.39646 0.13875,-0.82575 0.41703,-1.28829 0.31307,-0.46254 0.69604,-0.87578 1.14825,-1.2392 0.45221,-0.39646 0.93911,-0.72685 1.46089,-0.99115 0.55657,-0.26431 1.09569,-0.39636 1.61748,-0.39636 z m -42.68164,0.29765 c -0.34785,0 -0.71341,0.13205 -1.09605,0.39636 -0.34786,0.23127 -0.69549,0.54509 -1.04335,0.94155 -0.34786,0.39646 -0.6786,0.82575 -0.99167,1.28829 -0.31307,0.46254 -0.57367,0.90892 -0.78238,1.33842 0.0696,0.033 0.19142,0.0657 0.36535,0.0987 h 0.41703 c 1.00878,0 1.89605,-0.33038 2.66134,-0.99115 0.76528,-0.69381 1.14773,-1.5032 1.14773,-2.42828 0,-0.4295 -0.22578,-0.64389 -0.678,-0.64389 z m 20.34915,0 c -0.34786,0 -0.7129,0.13205 -1.09554,0.39636 -0.34786,0.23127 -0.69549,0.54509 -1.04335,0.94155 -0.28212,0.32154 -0.55001,0.67058 -0.80925,1.03559 0.0854,0.12723 0.13074,0.29246 0.13074,0.50075 0,0.30124 -0.0899,0.70307 -0.25218,1.18649 0.98326,-0.0132 1.85073,-0.34132 2.60036,-0.98857 0.76528,-0.69381 1.14773,-1.5032 1.14773,-2.42828 0,-0.4295 -0.2263,-0.64389 -0.67851,-0.64389 z m 15.13189,32.01407 c 0.2435,0 0.36536,0.11548 0.36536,0.34675 0,0.4295 0.10444,0.75988 0.31315,0.99115 0.2435,0.19823 0.36484,0.39657 0.36484,0.5948 0,0.0991 -0.0691,0.23116 -0.20826,0.39636 -0.13914,0.13215 -0.31321,0.2642 -0.52193,0.39636 -0.20871,0.13215 -0.43501,0.24815 -0.67851,0.34726 -0.20871,0.0661 -0.39968,0.0992 -0.57361,0.0992 -0.13914,0 -0.36544,-0.116 -0.67851,-0.34727 -0.27828,-0.23126 -0.41754,-0.46222 -0.41754,-0.69349 0,-0.36343 0.12185,-0.71038 0.36535,-1.04077 0.2435,-0.36342 0.80002,-0.72695 1.66966,-1.09037 z" />
  </g>
</svg>
